# xmcd
#
# Track frame offsets: 
#        150
#        18857
#        35953
#        49778
#        62312
#        77494
#        90782
#        105390
#        117279
#        132540
#        167927
#
# Disc length: 2437 seconds
#
# Revision: 2
# Processed by: cddbd v1.5.2PL0 Copyright (c) Steve Scherf et al.
# Submitted via: ExactAudioCopy v0.95b4
#
DISCID=8109830b
DTITLE=Various Artist - The Blues Brothers
DYEAR=1980
DGENRE=Blues
TTITLE0=The Blues Brothers - She Caught The Katy
TTITLE1=The Blues Brothers - Peter Gunn Theme
TTITLE2=The Blues Brothers - Gimme Some Lovin'
TTITLE3=Ray Charles with The Blues Brothers  - Shake A Tail Feather
TTITLE4=The Blues Brothers  - Everybody Needs Somebody To Love
TTITLE5=James Brown with Rev. James Cleveland Choir - The Old Landmark
TTITLE6=Aretha Franklin - Think
TTITLE7=The Blues Brothers  - Theme From Rawhide
TTITLE8=Cab Calloway - Minnie The Moocher
TTITLE9=The Blues Brothers  - Sweet Home Chicago
TTITLE10=The Blues Brothers  - Jailhouse Rock
EXTD=
EXTT0=Vocals: Jake
EXTT1=Instrumental
EXTT2=Vocals: Jake
EXTT3=Vocals: Ray Charles, Jake and Elwood
EXTT4=Vocals: Jake and Elwood
EXTT5=Vocals: James Brown with Rev. James Cleveland Choir
EXTT6=Vocals: Aretha Franklin
EXTT7=Vocals: Jake and Elwood
EXTT8=Vocals: Cab Calloway
EXTT9=Vocals: Jake and Elwood
EXTT10=Vocals: Jake
PLAYORDER=
